<svg width="37" height="27" viewBox="0 0 37 27" fill="none" xmlns="http://www.w3.org/2000/svg">
<path d="M23.5455 0C21.7613 0 20.0502 0.711158 18.7886 1.97703C17.5269 3.2429 16.8182 4.95979 16.8182 6.75C16.8182 8.54021 17.5269 10.2571 18.7886 11.523C20.0502 12.7888 21.7613 13.5 23.5455 13.5C25.3296 13.5 27.0407 12.7888 28.3024 11.523C29.564 10.2571 30.2727 8.54021 30.2727 6.75C30.2727 4.95979 29.564 3.2429 28.3024 1.97703C27.0407 0.711158 25.3296 0 23.5455 0ZM23.5455 3.20625C25.4964 3.20625 27.0773 4.7925 27.0773 6.75C27.0773 8.7075 25.4964 10.2938 23.5455 10.2938C22.6088 10.2938 21.7104 9.92039 21.0481 9.25581C20.3857 8.59123 20.0136 7.68986 20.0136 6.75C20.0136 5.81014 20.3857 4.90877 21.0481 4.24419C21.7104 3.57961 22.6088 3.20625 23.5455 3.20625ZM5.04545 5.0625V10.125H0V13.5H5.04545V18.5625H8.40909V13.5H13.4545V10.125H8.40909V5.0625H5.04545ZM23.5455 15.1875C19.055 15.1875 10.0909 17.4319 10.0909 21.9375V27H37V21.9375C37 17.4319 28.0359 15.1875 23.5455 15.1875ZM23.5455 18.3937C28.5405 18.3937 33.8045 20.8575 33.8045 21.9375V23.7938H13.2864V21.9375C13.2864 20.8575 18.5 18.3937 23.5455 18.3937Z" fill="white" fill-opacity="0.6"/>
</svg>
