<svg width="38" height="34" viewBox="0 0 38 34" fill="none" xmlns="http://www.w3.org/2000/svg">
<path d="M3.8 3.77778H9.5L13.3 0H24.7L28.5 3.77778H34.2C35.2078 3.77778 36.1744 4.17579 36.887 4.88426C37.5996 5.59273 38 6.55363 38 7.55556V30.2222C38 31.2241 37.5996 32.185 36.887 32.8935C36.1744 33.602 35.2078 34 34.2 34H3.8C2.79218 34 1.82563 33.602 1.11299 32.8935C0.400356 32.185 0 31.2241 0 30.2222V7.55556C0 6.55363 0.400356 5.59273 1.11299 4.88426C1.82563 4.17579 2.79218 3.77778 3.8 3.77778ZM19 9.44444C16.4804 9.44444 14.0641 10.4395 12.2825 12.2107C10.5009 13.9818 9.5 16.3841 9.5 18.8889C9.5 21.3937 10.5009 23.7959 12.2825 25.5671C14.0641 27.3383 16.4804 28.3333 19 28.3333C21.5196 28.3333 23.9359 27.3383 25.7175 25.5671C27.4991 23.7959 28.5 21.3937 28.5 18.8889C28.5 16.3841 27.4991 13.9818 25.7175 12.2107C23.9359 10.4395 21.5196 9.44444 19 9.44444ZM19 13.2222C20.5117 13.2222 21.9616 13.8192 23.0305 14.8819C24.0995 15.9447 24.7 17.386 24.7 18.8889C24.7 20.3918 24.0995 21.8331 23.0305 22.8958C21.9616 23.9585 20.5117 24.5556 19 24.5556C17.4883 24.5556 16.0384 23.9585 14.9695 22.8958C13.9005 21.8331 13.3 20.3918 13.3 18.8889C13.3 17.386 13.9005 15.9447 14.9695 14.8819C16.0384 13.8192 17.4883 13.2222 19 13.2222Z" fill="white" fill-opacity="0.7"/>
</svg>
