<svg width="54" height="48" viewBox="0 0 54 48" fill="none" xmlns="http://www.w3.org/2000/svg">
<path d="M5.4 5.33333H13.5L18.9 0H35.1L40.5 5.33333H48.6C50.0322 5.33333 51.4057 5.89524 52.4184 6.89543C53.4311 7.89562 54 9.25218 54 10.6667V42.6667C54 44.0812 53.4311 45.4377 52.4184 46.4379C51.4057 47.4381 50.0322 48 48.6 48H5.4C3.96783 48 2.59432 47.4381 1.58162 46.4379C0.568927 45.4377 0 44.0812 0 42.6667V10.6667C0 9.25218 0.568927 7.89562 1.58162 6.89543C2.59432 5.89524 3.96783 5.33333 5.4 5.33333ZM27 13.3333C23.4196 13.3333 19.9858 14.7381 17.4541 17.2386C14.9223 19.7391 13.5 23.1304 13.5 26.6667C13.5 30.2029 14.9223 33.5943 17.4541 36.0948C19.9858 38.5952 23.4196 40 27 40C30.5804 40 34.0142 38.5952 36.5459 36.0948C39.0777 33.5943 40.5 30.2029 40.5 26.6667C40.5 23.1304 39.0777 19.7391 36.5459 17.2386C34.0142 14.7381 30.5804 13.3333 27 13.3333ZM27 18.6667C29.1483 18.6667 31.2085 19.5095 32.7276 21.0098C34.2466 22.5101 35.1 24.5449 35.1 26.6667C35.1 28.7884 34.2466 30.8232 32.7276 32.3235C31.2085 33.8238 29.1483 34.6667 27 34.6667C24.8517 34.6667 22.7915 33.8238 21.2724 32.3235C19.7534 30.8232 18.9 28.7884 18.9 26.6667C18.9 24.5449 19.7534 22.5101 21.2724 21.0098C22.7915 19.5095 24.8517 18.6667 27 18.6667Z" fill="#262A33"/>
</svg>
