<svg width="14" height="27" viewBox="0 0 14 27" fill="none" xmlns="http://www.w3.org/2000/svg">
<path d="M12.0909 6.13636V20.25C12.0909 21.552 11.5545 22.8006 10.5998 23.7213C9.64509 24.6419 8.35019 25.1591 7 25.1591C5.64981 25.1591 4.35491 24.6419 3.40018 23.7213C2.44545 22.8006 1.90909 21.552 1.90909 20.25V4.90909C1.90909 4.09536 2.24432 3.31495 2.84102 2.73956C3.43773 2.16416 4.24704 1.84091 5.09091 1.84091C5.93478 1.84091 6.74409 2.16416 7.34079 2.73956C7.9375 3.31495 8.27273 4.09536 8.27273 4.90909V17.7955C8.27273 18.1209 8.13864 18.4331 7.89995 18.6633C7.66127 18.8934 7.33755 19.0227 7 19.0227C6.66245 19.0227 6.33873 18.8934 6.10005 18.6633C5.86136 18.4331 5.72727 18.1209 5.72727 17.7955V6.13636H3.81818V17.7955C3.81818 18.6092 4.15341 19.3896 4.75011 19.965C5.34682 20.5404 6.15613 20.8636 7 20.8636C7.84387 20.8636 8.65318 20.5404 9.24988 19.965C9.84659 19.3896 10.1818 18.6092 10.1818 17.7955V4.90909C10.1818 3.60712 9.64546 2.35847 8.69073 1.43784C7.73599 0.517206 6.4411 0 5.09091 0C3.74072 0 2.44582 0.517206 1.49109 1.43784C0.536362 2.35847 0 3.60712 0 4.90909V20.25C0 22.0402 0.737497 23.7571 2.05025 25.023C3.36301 26.2888 5.14348 27 7 27C8.85651 27 10.637 26.2888 11.9497 25.023C13.2625 23.7571 14 22.0402 14 20.25V6.13636H12.0909Z" fill="white" fill-opacity="0.6"/>
</svg>
