<svg width="35" height="26" viewBox="0 0 35 26" fill="none" xmlns="http://www.w3.org/2000/svg">
<path d="M19.3725 11.1107C20.4355 9.63958 21.0071 7.87583 21.0071 6.06674C21.0071 4.25764 20.4355 2.49389 19.3725 1.02275C20.3674 0.350146 21.5455 -0.00655221 22.75 9.11366e-05C24.3745 9.11366e-05 25.9324 0.639254 27.081 1.77697C28.2297 2.91469 28.875 4.45776 28.875 6.06674C28.875 7.67571 28.2297 9.21879 27.081 10.3565C25.9324 11.4942 24.3745 12.1334 22.75 12.1334C21.5455 12.14 20.3674 11.7833 19.3725 11.1107ZM6.125 6.06674C6.125 4.86687 6.48422 3.69394 7.15725 2.69629C7.83027 1.69863 8.78687 0.921057 9.90606 0.461887C11.0253 0.00271727 12.2568 -0.117423 13.4449 0.11666C14.6331 0.350743 15.7244 0.928535 16.581 1.77697C17.4376 2.62541 18.021 3.70638 18.2573 4.88319C18.4936 6.06001 18.3723 7.27981 17.9088 8.38834C17.4452 9.49687 16.6601 10.4444 15.6529 11.111C14.6456 11.7776 13.4614 12.1334 12.25 12.1334C10.6255 12.1334 9.06763 11.4942 7.91897 10.3565C6.77031 9.21879 6.125 7.67571 6.125 6.06674ZM9.625 6.06674C9.625 6.58097 9.77895 7.08365 10.0674 7.51121C10.3558 7.93878 10.7658 8.27203 11.2455 8.46881C11.7251 8.6656 12.2529 8.71709 12.7621 8.61677C13.2713 8.51645 13.739 8.26882 14.1062 7.90521C14.4733 7.54159 14.7233 7.07832 14.8246 6.57397C14.9258 6.06962 14.8739 5.54685 14.6752 5.07176C14.4765 4.59668 14.14 4.19061 13.7084 3.90492C13.2767 3.61923 12.7692 3.46675 12.25 3.46675C11.5538 3.46675 10.8861 3.74067 10.3938 4.22827C9.90156 4.71586 9.625 5.37718 9.625 6.06674ZM24.5 22.5333V26H0V22.5333C0 22.5333 0 15.6 12.25 15.6C24.5 15.6 24.5 22.5333 24.5 22.5333ZM21 22.5333C20.755 21.1814 18.6725 19.0667 12.25 19.0667C5.8275 19.0667 3.6225 21.3373 3.5 22.5333M24.4125 15.6C25.4851 16.4264 26.3621 17.4752 26.9818 18.673C27.6016 19.8708 27.9491 21.1884 28 22.5333V26H35V22.5333C35 22.5333 35 16.2414 24.395 15.6H24.4125Z" fill="white" fill-opacity="0.7"/>
</svg>
