<svg width="27" height="27" viewBox="0 0 27 27" fill="none" xmlns="http://www.w3.org/2000/svg">
<path d="M13.5 20.925C16.6455 20.925 19.305 18.954 20.3985 16.2H6.6015C7.6815 18.954 10.3545 20.925 13.5 20.925ZM8.775 12.15C9.31206 12.15 9.82713 11.9367 10.2069 11.5569C10.5867 11.1771 10.8 10.6621 10.8 10.125C10.8 9.58794 10.5867 9.07287 10.2069 8.69311C9.82713 8.31335 9.31206 8.1 8.775 8.1C8.23794 8.1 7.72287 8.31335 7.34311 8.69311C6.96335 9.07287 6.75 9.58794 6.75 10.125C6.75 10.6621 6.96335 11.1771 7.34311 11.5569C7.72287 11.9367 8.23794 12.15 8.775 12.15ZM18.225 12.15C18.7621 12.15 19.2771 11.9367 19.6569 11.5569C20.0367 11.1771 20.25 10.6621 20.25 10.125C20.25 9.58794 20.0367 9.07287 19.6569 8.69311C19.2771 8.31335 18.7621 8.1 18.225 8.1C17.6879 8.1 17.1729 8.31335 16.7931 8.69311C16.4133 9.07287 16.2 9.58794 16.2 10.125C16.2 10.6621 16.4133 11.1771 16.7931 11.5569C17.1729 11.9367 17.6879 12.15 18.225 12.15ZM13.5 24.3C10.6357 24.3 7.88864 23.1621 5.86325 21.1368C3.83785 19.1114 2.7 16.3643 2.7 13.5C2.7 10.6357 3.83785 7.88864 5.86325 5.86325C7.88864 3.83785 10.6357 2.7 13.5 2.7C16.3643 2.7 19.1114 3.83785 21.1368 5.86325C23.1621 7.88864 24.3 10.6357 24.3 13.5C24.3 16.3643 23.1621 19.1114 21.1368 21.1368C19.1114 23.1621 16.3643 24.3 13.5 24.3ZM13.5 0C6.0345 0 0 6.075 0 13.5C0 17.0804 1.42232 20.5142 3.95406 23.0459C5.20765 24.2995 6.69588 25.2939 8.33377 25.9724C9.97167 26.6508 11.7272 27 13.5 27C17.0804 27 20.5142 25.5777 23.0459 23.0459C25.5777 20.5142 27 17.0804 27 13.5C27 11.7272 26.6508 9.97167 25.9724 8.33377C25.2939 6.69588 24.2995 5.20765 23.0459 3.95406C21.7924 2.70047 20.3041 1.70606 18.6662 1.02763C17.0283 0.349188 15.2728 0 13.5 0Z" fill="white" fill-opacity="0.6"/>
</svg>
