<svg width="28" height="31" viewBox="0 0 28 31" fill="none" xmlns="http://www.w3.org/2000/svg">
<path d="M20.2222 23.25V18.6H9.33333V12.4H20.2222V7.75L28 15.5L20.2222 23.25ZM17.1111 0C17.9362 0 18.7276 0.326606 19.311 0.907969C19.8944 1.48933 20.2222 2.27783 20.2222 3.1V6.2H17.1111V3.1H3.11111V27.9H17.1111V24.8H20.2222V27.9C20.2222 28.7222 19.8944 29.5107 19.311 30.092C18.7276 30.6734 17.9362 31 17.1111 31H3.11111C2.28599 31 1.49467 30.6734 0.911223 30.092C0.327777 29.5107 0 28.7222 0 27.9V3.1C0 2.27783 0.327777 1.48933 0.911223 0.907969C1.49467 0.326606 2.28599 0 3.11111 0H17.1111Z" fill="white" fill-opacity="0.7"/>
</svg>
