<svg width="510" height="510" viewBox="0 0 510 510" fill="none" xmlns="http://www.w3.org/2000/svg">
<path d="M510 390.048H0V390.303H510V390.048Z" fill="#E0E0E0"/>
<path d="M98.7156 396.209H88.026V396.464H98.7156V396.209Z" fill="#E0E0E0"/>
<path d="M460.958 402.9H420.24V403.155H460.958V402.9Z" fill="#E0E0E0"/>
<path d="M430.603 396.331H399.33V396.586H430.603V396.331Z" fill="#E0E0E0"/>
<path d="M339.323 402.145H288.507V402.4H339.323V402.145Z" fill="#E0E0E0"/>
<path d="M199.349 400.534H145.86V400.789H199.349V400.534Z" fill="#E0E0E0"/>
<path d="M401.778 402.9H388.232V403.155H401.778V402.9Z" fill="#E0E0E0"/>
<path d="M83.028 400.411H66.2286V400.666H83.028V400.411Z" fill="#E0E0E0"/>
<path d="M241.74 344.556H44.7882C43.2453 344.553 41.7665 343.939 40.6765 342.847C39.5864 341.755 38.9742 340.275 38.9742 338.732V61.8732C38.9876 60.3392 39.6058 58.8723 40.6944 57.7914C41.783 56.7104 43.2541 56.1026 44.7882 56.1H241.74C243.285 56.1 244.766 56.7136 245.858 57.8059C246.951 58.8981 247.564 60.3795 247.564 61.9242V338.732C247.564 340.276 246.951 341.758 245.858 342.85C244.766 343.942 243.285 344.556 241.74 344.556ZM44.7882 56.304C43.3129 56.3067 41.899 56.8947 40.8568 57.9388C39.8145 58.9829 39.2292 60.3979 39.2292 61.8732V338.732C39.2292 340.207 39.8145 341.622 40.8568 342.666C41.899 343.71 43.3129 344.298 44.7882 344.301H241.74C243.216 344.298 244.631 343.711 245.675 342.667C246.719 341.623 247.306 340.208 247.309 338.732V61.8732C247.306 60.397 246.719 58.982 245.675 57.9382C244.631 56.8943 243.216 56.3067 241.74 56.304H44.7882Z" fill="#E0E0E0"/>
<path d="M462.376 344.556H265.414C263.87 344.553 262.391 343.939 261.299 342.847C260.207 341.755 259.593 340.276 259.59 338.732V61.8732C259.606 60.3382 260.227 58.8714 261.317 57.7908C262.407 56.7101 263.879 56.1026 265.414 56.1H462.376C463.909 56.1053 465.377 56.7143 466.463 57.795C467.55 58.8756 468.167 60.3409 468.18 61.8732V338.732C468.18 340.273 467.569 341.751 466.481 342.843C465.394 343.935 463.917 344.551 462.376 344.556ZM265.414 56.304C263.938 56.3067 262.523 56.8943 261.479 57.9382C260.435 58.982 259.848 60.397 259.845 61.8732V338.732C259.848 340.208 260.435 341.623 261.479 342.667C262.523 343.711 263.938 344.298 265.414 344.301H462.376C463.852 344.298 465.267 343.711 466.311 342.667C467.355 341.623 467.943 340.208 467.945 338.732V61.8732C467.943 60.397 467.355 58.982 466.311 57.9382C465.267 56.8943 463.852 56.3067 462.376 56.304H265.414Z" fill="#E0E0E0"/>
<path d="M70.4616 293.464H224.176L224.176 80.8452L70.4616 80.8452L70.4616 293.464Z" fill="#E0E0E0"/>
<path d="M67.0446 293.464H220.759L220.759 80.8452L67.0446 80.8452L67.0446 293.464Z" fill="#F0F0F0"/>
<path d="M214.628 287.263V87.0468L73.1748 87.0468V287.263H214.628Z" fill="#FAFAFA"/>
<path d="M127.633 287.273L127.633 87.057H118.391L118.391 287.273H127.633Z" fill="#E0E0E0"/>
<path d="M176.246 287.273V87.057H167.005V287.273H176.246Z" fill="#E0E0E0"/>
<path d="M124.379 291.2L124.379 82.4364H115.138L115.138 291.2H124.379Z" fill="#F0F0F0"/>
<path d="M173.002 291.21V82.4466H163.761V291.21H173.002Z" fill="#F0F0F0"/>
<path d="M75.7554 287.263L75.7554 87.0468H73.1748L73.1748 287.263H75.7554Z" fill="#E0E0E0"/>
<path d="M64.4742 72.879H228.908C229.118 72.879 229.318 72.9614 229.467 73.1084C229.616 73.2554 229.701 73.4552 229.704 73.6644C229.704 73.8754 229.62 74.0778 229.471 74.227C229.322 74.3762 229.119 74.46 228.908 74.46H64.4742C64.2632 74.46 64.0608 74.3762 63.9116 74.227C63.7624 74.0778 63.6786 73.8754 63.6786 73.6644C63.6813 73.4552 63.7663 73.2554 63.9152 73.1084C64.0641 72.9614 64.265 72.879 64.4742 72.879Z" fill="#E0E0E0"/>
<path d="M59.7312 73.6644C59.7292 74.448 59.9598 75.2146 60.3939 75.8669C60.828 76.5193 61.446 77.0282 62.1696 77.329C62.8931 77.6298 63.6897 77.709 64.4584 77.5566C65.227 77.4043 65.9331 77.0271 66.4872 76.473C67.0413 75.9189 67.4185 75.2128 67.5708 74.4442C67.7232 73.6755 67.644 72.8789 67.3432 72.1554C67.0424 71.4318 66.5335 70.8138 65.8812 70.3797C65.2288 69.9456 64.4622 69.715 63.6786 69.717C62.6325 69.7197 61.63 70.1364 60.8903 70.8761C60.1506 71.6158 59.7339 72.6183 59.7312 73.6644Z" fill="#E0E0E0"/>
<path d="M222.238 78.0912C222.376 78.0981 222.514 78.0768 222.644 78.0287C222.773 77.9805 222.892 77.9065 222.992 77.8111C223.092 77.7157 223.172 77.6009 223.226 77.4737C223.281 77.3465 223.309 77.2095 223.309 77.0712V74.7354C223.309 74.597 223.281 74.4601 223.226 74.3329C223.172 74.2057 223.092 74.0909 222.992 73.9955C222.892 73.9001 222.773 73.826 222.644 73.7779C222.514 73.7297 222.376 73.7085 222.238 73.7154C221.967 73.7154 221.708 73.8229 221.516 74.0141C221.325 74.2054 221.218 74.4649 221.218 74.7354V77.0304C221.212 77.1677 221.234 77.3048 221.283 77.4333C221.332 77.5618 221.406 77.6791 221.502 77.7782C221.597 77.8772 221.711 77.956 221.838 78.0098C221.964 78.0636 222.1 78.0913 222.238 78.0912Z" fill="#E0E0E0"/>
<path d="M76.398 78.0912C76.6685 78.0912 76.928 77.9837 77.1192 77.7924C77.3105 77.6012 77.418 77.3417 77.418 77.0712V74.7354C77.418 74.4649 77.3105 74.2054 77.1192 74.0141C76.928 73.8229 76.6685 73.7154 76.398 73.7154C76.2598 73.7085 76.1217 73.7297 75.992 73.7779C75.8623 73.826 75.7437 73.9001 75.6436 73.9955C75.5434 74.0909 75.4636 74.2057 75.4092 74.3329C75.3548 74.4601 75.3268 74.597 75.327 74.7354V77.0304C75.3211 77.1721 75.3449 77.3135 75.3968 77.4456C75.4487 77.5776 75.5275 77.6974 75.6283 77.7972C75.7291 77.897 75.8496 77.9747 75.9822 78.0254C76.1147 78.076 76.2563 78.0984 76.398 78.0912Z" fill="#E0E0E0"/>
<path opacity="0.4" d="M64.7292 176.684L218.331 176.684V73.6644L64.7292 73.6644V176.684Z" fill="#E0E0E0"/>
<path d="M205.571 73.6644C205.569 74.4476 205.799 75.2137 206.233 75.8659C206.666 76.5181 207.284 77.0269 208.007 77.328C208.73 77.6291 209.526 77.709 210.294 77.5574C211.063 77.4059 211.769 77.0297 212.323 76.4767C212.878 75.9236 213.256 75.2184 213.409 74.4505C213.563 73.6825 213.485 72.8862 213.186 72.1625C212.886 71.4387 212.379 70.82 211.728 70.3847C211.077 69.9494 210.312 69.717 209.528 69.717C208.481 69.717 207.475 70.1326 206.734 70.8726C205.992 71.6125 205.573 72.6166 205.571 73.6644Z" fill="#E0E0E0"/>
<path d="M321.983 213.343C321.983 213.343 335.325 190.352 316.822 172.054C316.822 172.054 311.998 175.205 312.069 179.438C312.14 183.671 317.24 184.732 316.149 188.272C315.058 191.811 310.243 195.259 313.405 198.186C316.567 201.113 312.895 203.694 313.109 207.274C313.324 210.854 321.983 213.343 321.983 213.343Z" fill="#E0E0E0"/>
<path d="M319.892 217.107C319.892 217.107 314.486 191.077 337.814 179.551C337.814 179.551 341.404 184.059 340.007 188.047C338.609 192.035 333.428 191.454 333.346 195.187C333.265 198.92 336.753 203.694 332.836 205.469C328.919 207.244 331.571 210.865 330.245 214.19C328.919 217.515 319.892 217.107 319.892 217.107Z" fill="#E6E6E6"/>
<path d="M336.896 202.909C336.896 202.909 336.569 234.416 323.983 234.416C311.396 234.416 311.1 202.909 311.1 202.909H336.896Z" fill="#F0F0F0"/>
<path d="M412.58 222.564C412.58 222.564 411.876 234.416 384.979 234.416C358.081 234.416 357.377 222.564 357.377 222.564H412.58Z" fill="#E6E6E6"/>
<path d="M138.118 354.389H152.317C154.085 354.389 155.519 352.955 155.519 351.186V327.706C155.519 325.937 154.085 324.503 152.317 324.503H138.118C136.349 324.503 134.915 325.937 134.915 327.706V351.186C134.915 352.955 136.349 354.389 138.118 354.389Z" fill="#F0F0F0"/>
<path d="M100.47 354.379H110.027C111.216 354.379 112.18 353.415 112.18 352.226V336.416C112.18 335.228 111.216 334.264 110.027 334.264H100.47C99.2814 334.264 98.3178 335.228 98.3178 336.416V352.226C98.3178 353.415 99.2814 354.379 100.47 354.379Z" fill="#E6E6E6"/>
<path d="M99.042 334.58H111.455C111.855 334.58 112.18 334.256 112.18 333.856V333.04C112.18 332.64 111.855 332.316 111.455 332.316H99.042C98.642 332.316 98.3178 332.64 98.3178 333.04V333.856C98.3178 334.256 98.642 334.58 99.042 334.58Z" fill="#F0F0F0"/>
<path d="M188.384 337.753C188.384 337.753 187.874 354.379 168.402 354.379C148.93 354.379 148.42 337.753 148.42 337.753H188.384Z" fill="#E6E6E6"/>
<path d="M236.813 354.379H207.346V360.193H236.813V354.379Z" fill="#E0E0E0"/>
<path d="M60.843 360.203H207.346V354.389H60.843V360.203Z" fill="#F0F0F0"/>
<path d="M236.813 369.893H207.346V375.707H236.813V369.893Z" fill="#E0E0E0"/>
<path d="M60.843 375.707H207.346V369.893H60.843V375.707Z" fill="#F0F0F0"/>
<path d="M226.195 390.048H231.632V360.193H226.195V390.048Z" fill="#E0E0E0"/>
<path d="M201.909 390.048H207.346V360.193H201.909V390.048Z" fill="#F0F0F0"/>
<path d="M79.6926 390.048H85.1292V360.193H79.6926V390.048Z" fill="#E0E0E0"/>
<path d="M60.8532 390.048H66.2898V360.193H60.8532V390.048Z" fill="#F0F0F0"/>
<path d="M412.58 382.388H440.446V241.801H412.58V382.388Z" fill="#E6E6E6"/>
<path d="M297.677 390.048H435.091V382.388H297.677V390.048Z" fill="#E6E6E6"/>
<path d="M412.58 241.811H292.332V382.398H412.58V241.811Z" fill="#F0F0F0"/>
<path d="M401.625 295.892H303.287V328.297H401.625V295.892Z" fill="#E6E6E6"/>
<path d="M401.625 335.529H303.287V367.934H401.625V335.529Z" fill="#E6E6E6"/>
<path d="M341.414 300.237H363.497C364.216 300.234 364.905 299.948 365.413 299.439C365.921 298.931 366.208 298.243 366.211 297.524C366.211 296.803 365.925 296.112 365.417 295.602C364.908 295.091 364.218 294.803 363.497 294.8H341.414C340.694 294.803 340.004 295.091 339.495 295.602C338.987 296.112 338.701 296.803 338.701 297.524C338.704 298.243 338.991 298.931 339.499 299.439C340.007 299.948 340.696 300.234 341.414 300.237Z" fill="#F0F0F0"/>
<path d="M401.625 256.265H303.287V288.67H401.625V256.265Z" fill="#E6E6E6"/>
<path d="M341.414 260.61H363.497C364.218 260.607 364.908 260.319 365.417 259.809C365.925 259.298 366.211 258.607 366.211 257.887C366.208 257.168 365.921 256.479 365.413 255.971C364.905 255.463 364.216 255.176 363.497 255.173H341.414C340.696 255.176 340.007 255.463 339.499 255.971C338.991 256.479 338.704 257.168 338.701 257.887C338.701 258.607 338.987 259.298 339.495 259.809C340.004 260.319 340.694 260.607 341.414 260.61Z" fill="#F0F0F0"/>
<path d="M341.414 339.874H363.497C364.218 339.871 364.908 339.583 365.417 339.073C365.925 338.562 366.211 337.871 366.211 337.151C366.208 336.432 365.921 335.743 365.413 335.235C364.905 334.727 364.216 334.44 363.497 334.438H341.414C340.696 334.44 340.007 334.727 339.499 335.235C338.991 335.743 338.704 336.432 338.701 337.151C338.701 337.871 338.987 338.562 339.495 339.073C340.004 339.583 340.694 339.871 341.414 339.874Z" fill="#F0F0F0"/>
<path d="M288.619 241.801L412.58 241.801V234.406L288.619 234.406V241.801Z" fill="#E6E6E6"/>
<path d="M444.343 234.416H412.58V241.811H444.343V234.416Z" fill="#E0E0E0"/>
<path d="M368.363 166.525H425.167V102.082H368.363V166.525Z" fill="#E6E6E6"/>
<path d="M361.998 166.525H422.617V102.082L361.998 102.082V166.525Z" fill="#F0F0F0"/>
<path d="M417.547 161.446V107.161H367.088V161.446H417.547Z" fill="#FAFAFA"/>
<path d="M405.317 148.288V120.319H379.318V148.288H405.317Z" fill="#F0F0F0"/>
<path d="M306.49 130.866H349.115V83.0586H306.49V130.866Z" fill="#E6E6E6"/>
<path d="M301.767 130.866H346.739V83.0586H301.767V130.866Z" fill="#F0F0F0"/>
<path d="M342.965 127.092V86.8224H305.531V127.092H342.965Z" fill="#FAFAFA"/>
<path d="M324.248 96.7878L334.489 114.515H314.017L324.248 96.7878Z" fill="#F0F0F0"/>
<path d="M255 436.111C364.224 436.111 452.768 430.942 452.768 424.565C452.768 418.188 364.224 413.018 255 413.018C145.776 413.018 57.2322 418.188 57.2322 424.565C57.2322 430.942 145.776 436.111 255 436.111Z" fill="#F5F5F5"/>
<path d="M399.32 167.576H314.395C311.093 167.576 307.926 168.884 305.588 171.215C303.25 173.546 301.931 176.708 301.92 180.01V225.971C301.931 229.267 303.246 232.425 305.577 234.755C307.909 237.084 311.068 238.397 314.364 238.405H322.963L319.648 251.94C324.503 251.497 329.217 250.071 333.502 247.747C337.788 245.423 341.556 242.252 344.576 238.425H399.32C402.616 238.417 405.775 237.105 408.106 234.775C410.438 232.445 411.753 229.287 411.764 225.991V180.01C411.753 176.713 410.438 173.556 408.106 171.226C405.775 168.896 402.616 167.584 399.32 167.576Z" fill="#7F76FF"/>
<path opacity="0.3" d="M399.32 167.576H314.395C311.093 167.576 307.926 168.884 305.588 171.215C303.25 173.546 301.931 176.708 301.92 180.01V225.971C301.931 229.267 303.246 232.425 305.577 234.755C307.909 237.084 311.068 238.397 314.364 238.405H322.963L319.648 251.94C324.503 251.497 329.217 250.071 333.502 247.747C337.788 245.423 341.556 242.252 344.576 238.425H399.32C402.616 238.417 405.775 237.105 408.106 234.775C410.438 232.445 411.753 229.287 411.764 225.991V180.01C411.753 176.713 410.438 173.556 408.106 171.226C405.775 168.896 402.616 167.584 399.32 167.576Z" fill="black"/>
<path d="M389.314 213.496C395.116 213.496 399.82 208.792 399.82 202.99C399.82 197.188 395.116 192.484 389.314 192.484C383.511 192.484 378.808 197.188 378.808 202.99C378.808 208.792 383.511 213.496 389.314 213.496Z" fill="#7F76FF"/>
<path d="M356.857 213.496C362.659 213.496 367.363 208.792 367.363 202.99C367.363 197.188 362.659 192.484 356.857 192.484C351.055 192.484 346.351 197.188 346.351 202.99C346.351 208.792 351.055 213.496 356.857 213.496Z" fill="#7F76FF"/>
<path d="M324.411 213.496C330.213 213.496 334.917 208.792 334.917 202.99C334.917 197.188 330.213 192.484 324.411 192.484C318.609 192.484 313.905 197.188 313.905 202.99C313.905 208.792 318.609 213.496 324.411 213.496Z" fill="#7F76FF"/>
<g opacity="0.1">
<path d="M389.314 213.496C395.116 213.496 399.82 208.792 399.82 202.99C399.82 197.188 395.116 192.484 389.314 192.484C383.511 192.484 378.808 197.188 378.808 202.99C378.808 208.792 383.511 213.496 389.314 213.496Z" fill="#FAFAFA"/>
<path d="M356.857 213.496C362.659 213.496 367.363 208.792 367.363 202.99C367.363 197.188 362.659 192.484 356.857 192.484C351.055 192.484 346.351 197.188 346.351 202.99C346.351 208.792 351.055 213.496 356.857 213.496Z" fill="#FAFAFA"/>
<path d="M324.411 213.496C330.213 213.496 334.917 208.792 334.917 202.99C334.917 197.188 330.213 192.484 324.411 192.484C318.609 192.484 313.905 197.188 313.905 202.99C313.905 208.792 318.609 213.496 324.411 213.496Z" fill="#FAFAFA"/>
</g>
<path d="M191.077 101.582H276.012C279.309 101.593 282.468 102.907 284.799 105.238C287.131 107.57 288.445 110.729 288.456 114.026V159.977C288.435 163.267 287.115 166.415 284.785 168.738C282.455 171.06 279.302 172.369 276.012 172.38H267.413L270.759 185.885C265.903 185.443 261.188 184.018 256.901 181.697C252.613 179.375 248.843 176.205 245.82 172.38H191.077C187.781 172.369 184.623 171.054 182.293 168.723C179.963 166.391 178.651 163.232 178.643 159.936V114.036C178.648 110.738 179.959 107.577 182.289 105.243C184.619 102.909 187.779 101.593 191.077 101.582Z" fill="#7F76FF"/>
<path opacity="0.1" d="M191.077 101.582H276.012C279.309 101.593 282.468 102.907 284.799 105.238C287.131 107.57 288.445 110.729 288.456 114.026V159.977C288.435 163.267 287.115 166.415 284.785 168.738C282.455 171.06 279.302 172.369 276.012 172.38H267.413L270.759 185.885C265.903 185.443 261.188 184.018 256.901 181.697C252.613 179.375 248.843 176.205 245.82 172.38H191.077C187.781 172.369 184.623 171.054 182.293 168.723C179.963 166.391 178.651 163.232 178.643 159.936V114.036C178.648 110.738 179.959 107.577 182.289 105.243C184.619 102.909 187.779 101.593 191.077 101.582Z" fill="#FAFAFA"/>
<path d="M273.411 117.586H193.678V125.134H273.411V117.586Z" fill="#7F76FF"/>
<path d="M255.173 133.222H193.678V140.77H255.173V133.222Z" fill="#7F76FF"/>
<path d="M263.201 148.869H193.678V156.417H263.201V148.869Z" fill="#7F76FF"/>
<g opacity="0.3">
<path d="M273.411 117.586H193.678V125.134H273.411V117.586Z" fill="black"/>
<path d="M255.173 133.222H193.678V140.77H255.173V133.222Z" fill="black"/>
<path d="M263.201 148.869H193.678V156.417H263.201V148.869Z" fill="black"/>
</g>
<path d="M304.011 317.536C303.45 317.536 302.879 317.536 302.297 317.587C290.18 318.454 280.378 328.715 279.602 341.343C279.43 344.131 279.695 346.929 280.388 349.636C283.062 360.496 284.351 371.652 284.223 382.837V415.477C284.201 416.584 284.617 417.656 285.381 418.458C286.146 419.26 287.196 419.729 288.303 419.761H369.24V317.536H304.011Z" fill="#7F76FF"/>
<path opacity="0.3" d="M304.011 317.536C303.45 317.536 302.879 317.536 302.297 317.587C290.18 318.454 280.378 328.715 279.602 341.343C279.43 344.131 279.695 346.929 280.388 349.636C283.062 360.496 284.351 371.652 284.223 382.837V415.477C284.201 416.584 284.617 417.656 285.381 418.458C286.146 419.26 287.196 419.729 288.303 419.761H369.24V317.536H304.011Z" fill="black"/>
<path d="M393.72 343.016C393.72 328.358 381.837 316.577 367.547 317.597C355.429 318.464 345.627 328.726 344.852 341.353C344.68 344.141 344.945 346.939 345.637 349.646C348.311 360.507 349.6 371.662 349.472 382.847V415.487C349.45 416.595 349.867 417.666 350.631 418.468C351.395 419.271 352.445 419.739 353.552 419.771H384.917C386.026 419.741 387.077 419.274 387.842 418.471C388.607 417.668 389.022 416.595 388.997 415.487V380.929C388.93 370.449 390.226 360.005 392.853 349.86C393.437 347.626 393.728 345.325 393.72 343.016Z" fill="#7F76FF"/>
<path d="M335.56 357.673H232.376V419.71H335.56V357.673Z" fill="#7F76FF"/>
<path opacity="0.3" d="M335.56 357.673H232.376V419.71H335.56V357.673Z" fill="black"/>
<path d="M177.602 283.366H291.536C296.546 283.366 301.351 285.356 304.894 288.899C308.437 292.442 310.427 297.247 310.427 302.257V371.698H158.702V302.257C158.702 299.775 159.191 297.318 160.141 295.025C161.091 292.733 162.483 290.65 164.238 288.895C165.993 287.141 168.077 285.75 170.37 284.801C172.663 283.852 175.121 283.365 177.602 283.366Z" fill="#7F76FF"/>
<path opacity="0.4" d="M177.602 283.366H291.536C296.546 283.366 301.351 285.356 304.894 288.899C308.437 292.442 310.427 297.247 310.427 302.257V371.698H158.702V302.257C158.702 299.775 159.191 297.318 160.141 295.025C161.091 292.733 162.483 290.65 164.238 288.895C165.993 287.141 168.077 285.75 170.37 284.801C172.663 283.852 175.121 283.365 177.602 283.366Z" fill="black"/>
<path d="M200.002 283.366H297.391C302.16 283.366 306.734 285.261 310.107 288.633C313.479 292.006 315.374 296.58 315.374 301.349V371.729H182.019V301.349C182.019 298.987 182.484 296.649 183.388 294.467C184.292 292.285 185.616 290.303 187.286 288.633C188.956 286.963 190.938 285.639 193.12 284.735C195.302 283.831 197.64 283.366 200.002 283.366Z" fill="#7F76FF"/>
<path d="M238.272 351.217H334.223C335.7 351.217 337.117 351.803 338.161 352.848C339.206 353.892 339.793 355.309 339.793 356.786V371.708C339.793 373.185 339.206 374.602 338.161 375.646C337.117 376.691 335.7 377.278 334.223 377.278H238.272C237.831 377.278 237.408 377.102 237.096 376.791C236.785 376.479 236.609 376.056 236.609 375.615V352.92C236.604 352.698 236.643 352.478 236.724 352.271C236.805 352.065 236.927 351.877 237.082 351.718C237.237 351.559 237.422 351.433 237.626 351.347C237.831 351.261 238.05 351.217 238.272 351.217Z" fill="#7F76FF"/>
<path opacity="0.4" d="M238.272 351.217H334.223C335.7 351.217 337.117 351.803 338.161 352.848C339.206 353.892 339.793 355.309 339.793 356.786V371.708C339.793 373.185 339.206 374.602 338.161 375.646C337.117 376.691 335.7 377.278 334.223 377.278H238.272C237.831 377.278 237.408 377.102 237.096 376.791C236.785 376.479 236.609 376.056 236.609 375.615V352.92C236.604 352.698 236.643 352.478 236.724 352.271C236.805 352.065 236.927 351.877 237.082 351.718C237.237 351.559 237.422 351.433 237.626 351.347C237.831 351.261 238.05 351.217 238.272 351.217Z" fill="black"/>
<path d="M148.685 419.72H370.505V419.781C370.505 420.593 370.182 421.371 369.609 421.945C369.035 422.519 368.256 422.841 367.445 422.841H151.725C150.913 422.841 150.135 422.519 149.561 421.945C148.987 421.371 148.665 420.593 148.665 419.781V419.72H148.685Z" fill="#7F76FF"/>
<path opacity="0.4" d="M148.685 419.72H370.505V419.781C370.505 420.593 370.182 421.371 369.609 421.945C369.035 422.519 368.256 422.841 367.445 422.841H151.725C150.913 422.841 150.135 422.519 149.561 421.945C148.987 421.371 148.665 420.593 148.665 419.781V419.72H148.685Z" fill="black"/>
<path d="M281.234 273.095L281.642 274.757L282.112 276.563C282.438 277.766 282.785 278.98 283.132 280.184C283.856 282.611 284.641 285.039 285.457 287.456C286.273 289.874 287.12 292.301 288.038 294.698C288.497 295.902 288.946 297.106 289.415 298.299L289.976 299.737C290.088 299.985 290.235 300.216 290.414 300.421C291.774 301.798 293.431 302.845 295.259 303.481C297.503 304.37 299.812 305.087 302.165 305.623C304.592 306.184 307.091 306.643 309.621 307.04C312.151 307.438 314.721 307.754 317.23 308.06L317.322 313.211C311.86 313.758 306.357 313.734 300.9 313.14C298.041 312.852 295.214 312.302 292.454 311.498C290.961 311.052 289.507 310.483 288.109 309.794C286.5 309.013 285.027 307.98 283.744 306.734C283.001 305.998 282.356 305.168 281.826 304.266C281.683 304.031 281.561 303.776 281.428 303.521L281.183 303.011L280.735 302.104C280.143 300.89 279.551 299.666 279.001 298.432C277.889 295.963 276.818 293.485 275.849 290.945C274.88 288.405 273.952 285.845 273.125 283.223C272.728 281.908 272.35 280.592 271.993 279.245L271.473 277.205C271.31 276.491 271.177 275.879 271.014 275.023L281.234 273.095Z" fill="#B55B52"/>
<path d="M277.981 262.252C282.061 263.272 284.957 280.194 284.957 280.194L273.646 287.885C273.646 287.885 262.793 270.841 265.955 266.332C269.28 261.63 271.983 260.732 277.981 262.252Z" fill="#7F76FF"/>
<path opacity="0.5" d="M277.981 262.252C282.061 263.272 284.957 280.194 284.957 280.194L273.646 287.885C273.646 287.885 262.793 270.841 265.955 266.332C269.28 261.63 271.983 260.732 277.981 262.252Z" fill="#FAFAFA"/>
<path d="M278.348 268.393L269.566 270.433L268.719 279.021C270.209 282.058 271.854 285.016 273.646 287.885L280.5 283.223C280.214 279.276 279.48 271.065 278.348 268.393Z" fill="#7F76FF"/>
<path opacity="0.3" d="M278.348 268.393L269.566 270.433L268.719 279.021C270.209 282.058 271.854 285.016 273.646 287.885L280.5 283.223C280.214 279.276 279.48 271.065 278.348 268.393Z" fill="#FAFAFA"/>
<path d="M315.782 307.969L322.85 300.829L323.779 310.916C323.779 310.916 318.475 314.497 314.813 312.569L315.782 307.969Z" fill="#B55B52"/>
<path d="M331.153 299.737L331.469 308.224L323.779 310.896L322.85 300.808L331.153 299.737Z" fill="#B55B52"/>
<path d="M277.981 262.252C277.981 262.252 282.724 263.925 273.217 322.371H232.764C233.447 305.908 233.468 295.749 225.624 261.967C231.274 260.798 237.001 260.041 242.76 259.702C248.872 259.264 255.008 259.264 261.12 259.702C269.035 260.426 277.981 262.252 277.981 262.252Z" fill="#7F76FF"/>
<path opacity="0.5" d="M277.981 262.252C277.981 262.252 282.724 263.925 273.217 322.371H232.764C233.447 305.908 233.468 295.749 225.624 261.967C231.274 260.798 237.001 260.041 242.76 259.702C248.872 259.264 255.008 259.264 261.12 259.702C269.035 260.426 277.981 262.252 277.981 262.252Z" fill="#FAFAFA"/>
<path d="M265.832 260.233C264.282 260.029 262.691 259.845 261.14 259.702C255.028 259.264 248.893 259.264 242.78 259.702C241.363 259.774 239.955 259.876 238.598 260.008L238.894 260.936C239.057 261.457 243.107 273.778 257.703 280.316L260.498 281.571L262.477 279.225C264.727 276.673 266.231 273.551 266.823 270.2C267.415 266.85 267.072 263.401 265.832 260.233Z" fill="#7F76FF"/>
<path opacity="0.3" d="M265.832 260.233C264.282 260.029 262.691 259.845 261.14 259.702C255.028 259.264 248.893 259.264 242.78 259.702C241.363 259.774 239.955 259.876 238.598 260.008L238.894 260.936C239.057 261.457 243.107 273.778 257.703 280.316L260.498 281.571L262.477 279.225C264.727 276.673 266.231 273.551 266.823 270.2C267.415 266.85 267.072 263.401 265.832 260.233Z" fill="black"/>
<path d="M235.11 277.654L229.888 282.091C231.01 288.007 231.754 292.934 232.234 297.31C233.213 292.913 235.691 281.01 235.11 277.654Z" fill="#7F76FF"/>
<path opacity="0.3" d="M235.11 277.654L229.888 282.091C231.01 288.007 231.754 292.934 232.234 297.31C233.213 292.913 235.691 281.01 235.11 277.654Z" fill="#FAFAFA"/>
<path d="M250.104 209.1C239.394 205.744 233.427 217.26 234.457 231.662C235.202 241.985 233.121 246.483 226.95 246.177C229.837 252.96 266.22 263.16 276.746 251.032C273.788 249.431 272.309 242.301 274.472 235.916C279.368 221.513 274.829 199.767 250.104 209.1Z" fill="#263238"/>
<path d="M244.596 239.017C245.749 244.933 246.911 255.755 242.77 259.702C242.77 259.702 246.269 270.728 259.355 276.593C261.329 274.29 262.555 271.44 262.871 268.423C263.186 265.406 262.575 262.364 261.12 259.702C254.531 258.131 254.704 253.235 255.847 248.645L244.596 239.017Z" fill="#B55B52"/>
<path d="M249.186 242.944L255.867 248.645C255.584 249.712 255.393 250.8 255.296 251.899C252.776 251.542 249.319 248.778 249.053 246.136C248.905 245.073 248.949 243.991 249.186 242.944Z" fill="#9E4541"/>
<path d="M245.147 222.482C242.831 232.091 241.648 236.11 244.922 242.413C249.849 251.889 262.16 252.613 267.301 243.913C271.932 236.059 274.941 221.666 266.863 215.077C265.088 213.616 262.969 212.633 260.707 212.221C258.445 211.809 256.116 211.983 253.94 212.725C251.764 213.467 249.814 214.753 248.275 216.461C246.736 218.168 245.659 220.241 245.147 222.482Z" fill="#B55B52"/>
<path d="M243.443 228.123C243.443 228.123 263.333 221.932 254.235 211.477C243.525 214.118 243.443 217.26 243.443 217.26V228.123Z" fill="#263238"/>
<path d="M255.5 217.433C262.987 218.209 270.433 222.615 272.84 226.613C274.227 219.81 269.351 211.313 263.925 210.12C258.499 208.927 251.94 211.477 251.94 211.477L255.5 217.433Z" fill="#263238"/>
<path d="M240.2 228.857C240.167 230.761 240.86 232.607 242.138 234.019C243.851 235.875 245.932 234.661 246.483 232.366C246.973 230.326 246.677 226.828 244.443 225.828C242.209 224.828 240.261 226.532 240.2 228.857Z" fill="#B55B52"/>
<path d="M324.268 330.286C301.685 329.97 286.885 345.474 286.885 345.474C289.048 351.747 290.414 356.459 290.414 356.459C302.787 354.266 316.843 353.297 328.43 350.513C338.895 347.993 340.099 335.366 339.028 330.113C337.957 324.86 332.02 323.646 326.206 321.953C319.566 320.045 306.887 319.994 297.799 320.056C288.211 320.107 275.614 321.014 269.086 322.391C269.086 322.391 255.224 321.953 244.963 322.208C238.966 321.351 242.495 330.062 251.96 337.436C256.867 341.179 262.483 343.885 268.467 345.391C274.452 346.897 280.679 347.172 286.773 346.198H286.844" fill="#263238"/>
<path d="M289.007 354.96L286.13 344.148C286.087 343.96 285.975 343.795 285.817 343.684C285.659 343.573 285.465 343.524 285.274 343.546L276.389 344.566C276.161 344.598 275.943 344.678 275.749 344.802C275.555 344.926 275.39 345.091 275.266 345.285C275.142 345.479 275.061 345.697 275.03 345.926C274.998 346.154 275.017 346.386 275.084 346.606C276.155 350.36 276.859 352.114 278.144 356.867C278.919 359.795 280.184 365.925 281.296 369.964C282.407 374.003 286.396 373.157 286.345 371.382C285.957 363.406 287.365 359.846 288.864 356.735C289.12 356.179 289.17 355.55 289.007 354.96Z" fill="#263238"/>
<path d="M290.2 361.335C289.964 361.334 289.733 361.263 289.537 361.131C288.344 360.356 287.997 357.51 287.895 355.888C287.892 355.854 287.9 355.819 287.917 355.79C287.935 355.76 287.961 355.737 287.993 355.723C288.025 355.709 288.06 355.706 288.094 355.714C288.128 355.722 288.158 355.74 288.181 355.766C288.517 356.133 291.475 359.417 291.159 360.743C291.13 360.859 291.072 360.965 290.989 361.05C290.907 361.136 290.804 361.199 290.69 361.233C290.536 361.301 290.369 361.336 290.2 361.335ZM288.262 356.357C288.466 358.714 288.997 360.376 289.721 360.845C289.846 360.929 289.989 360.98 290.139 360.994C290.288 361.008 290.439 360.985 290.578 360.927C290.64 360.909 290.696 360.875 290.741 360.829C290.785 360.782 290.817 360.725 290.833 360.662C291.047 359.795 289.272 357.52 288.262 356.357Z" fill="#7F76FF"/>
<path d="M289.037 356.878L285.304 342.873L290.221 340.843L297.146 355.878L289.037 356.878Z" fill="#7F76FF"/>
<path opacity="0.6" d="M289.037 356.878L285.304 342.873L290.221 340.843L297.146 355.878L289.037 356.878Z" fill="#FAFAFA"/>
<path d="M291.985 358.295C290.792 358.295 288.65 356.857 287.905 355.98C287.893 355.955 287.886 355.927 287.886 355.898C287.886 355.87 287.893 355.842 287.905 355.817C287.916 355.79 287.933 355.766 287.954 355.747C287.975 355.728 288 355.713 288.028 355.705C288.14 355.705 290.761 355.225 292.108 356.153C292.297 356.279 292.457 356.443 292.578 356.634C292.699 356.826 292.779 357.041 292.811 357.265C292.913 357.867 292.658 358.122 292.434 358.214C292.295 358.281 292.139 358.309 291.985 358.295ZM288.395 355.98C289.415 357 291.577 358.204 292.261 357.908C292.322 357.908 292.516 357.785 292.444 357.306C292.418 357.126 292.353 356.954 292.255 356.8C292.156 356.647 292.026 356.517 291.873 356.419C290.924 355.756 289.109 355.898 288.395 355.98Z" fill="#7F76FF"/>
<path d="M240.506 322.912C227.95 321.3 209.375 320.678 208.315 333.764C207.254 346.851 216.281 360.284 240.832 361.009C265.384 361.733 270.688 355.562 271.565 350.299C272.687 343.648 274.625 341.955 268.76 338.946C262.895 335.937 261.814 325.635 240.506 322.912Z" fill="#263238"/>
<path d="M267.067 357.194L264.18 346.382C264.125 346.196 264.14 345.997 264.223 345.822C264.305 345.646 264.45 345.508 264.629 345.433L272.86 341.924C273.07 341.844 273.294 341.808 273.518 341.82C273.742 341.832 273.962 341.89 274.162 341.992C274.362 342.094 274.538 342.237 274.68 342.412C274.821 342.586 274.924 342.789 274.982 343.006C275.92 346.8 276.185 348.677 277.45 353.43C278.225 356.357 280.143 362.324 281.224 366.364C282.305 370.403 278.358 371.688 277.552 370.097C273.921 362.957 270.892 360.611 268.076 358.642C267.581 358.292 267.224 357.78 267.067 357.194Z" fill="#263238"/>
<path d="M268.586 363.497C268.493 363.499 268.4 363.481 268.314 363.444C268.227 363.407 268.15 363.352 268.087 363.283C267.148 362.263 268.087 357.979 268.189 357.49C268.195 357.455 268.212 357.424 268.238 357.4C268.264 357.376 268.297 357.361 268.331 357.357C268.365 357.352 268.399 357.358 268.429 357.375C268.458 357.392 268.481 357.418 268.495 357.449C269.219 358.907 270.331 361.529 269.678 362.814C269.587 362.996 269.453 363.152 269.288 363.269C269.122 363.387 268.93 363.462 268.729 363.487L268.586 363.497ZM268.413 358.04C268.117 359.56 267.709 362.406 268.321 363.049C268.365 363.098 268.422 363.134 268.484 363.154C268.547 363.173 268.614 363.176 268.678 363.161C268.828 363.142 268.97 363.086 269.093 362.999C269.215 362.912 269.315 362.796 269.382 362.661C269.923 361.61 268.954 359.224 268.413 358.02V358.04Z" fill="#7F76FF"/>
<path d="M265.69 361.712C265.445 361.712 265.149 361.59 264.955 361.07C264.875 360.858 264.838 360.633 264.847 360.407C264.855 360.181 264.91 359.959 265.006 359.754C265.679 358.306 268.189 357.398 268.291 357.367C268.315 357.352 268.343 357.344 268.372 357.344C268.401 357.344 268.429 357.352 268.454 357.367C268.479 357.383 268.498 357.407 268.509 357.434C268.52 357.461 268.522 357.492 268.515 357.52C268.301 358.785 266.863 361.6 265.751 361.682L265.69 361.712ZM268.117 357.796C267.454 358.071 265.802 358.816 265.312 359.897C265.243 360.058 265.207 360.231 265.207 360.407C265.207 360.582 265.243 360.756 265.312 360.917C265.475 361.366 265.7 361.345 265.761 361.335C266.465 361.304 267.76 359.193 268.117 357.796Z" fill="#7F76FF"/>
<path d="M267.526 357.061L265.18 343.944L259.447 343.73L259.886 360.427L267.526 357.061Z" fill="#7F76FF"/>
<path opacity="0.6" d="M267.526 357.061L265.18 343.944L259.447 343.73L259.886 360.427L267.526 357.061Z" fill="#FAFAFA"/>
<path d="M258.641 229.5C258.407 230.265 258.641 231.01 259.131 231.173C259.621 231.336 260.233 230.826 260.467 230.061C260.702 229.296 260.467 228.541 259.978 228.388C259.488 228.235 258.886 228.745 258.641 229.5Z" fill="#263238"/>
<path d="M267.322 232.172C267.087 232.948 267.322 233.692 267.811 233.845C268.301 233.998 268.913 233.498 269.147 232.733C269.382 231.968 269.147 231.214 268.658 231.061C268.168 230.908 267.566 231.407 267.322 232.172Z" fill="#263238"/>
<path d="M268.423 231.04H270.463C270.463 231.04 269.045 232.223 268.423 231.04Z" fill="#263238"/>
<path d="M264.629 232.795C264.774 234.757 265.189 236.689 265.863 238.537C265.385 238.695 264.878 238.747 264.377 238.689C263.877 238.631 263.395 238.464 262.966 238.201L264.629 232.795Z" fill="#A02724"/>
<path d="M258.672 239.884C258.662 239.888 258.652 239.89 258.641 239.89C258.631 239.89 258.62 239.888 258.611 239.884C257.062 239.051 255.896 237.651 255.357 235.977C255.351 235.958 255.349 235.938 255.35 235.919C255.352 235.899 255.358 235.88 255.368 235.863C255.377 235.846 255.39 235.831 255.406 235.819C255.422 235.807 255.44 235.798 255.459 235.793C255.497 235.784 255.537 235.789 255.571 235.808C255.605 235.827 255.631 235.858 255.643 235.895C256.164 237.474 257.255 238.801 258.703 239.618C258.731 239.635 258.754 239.661 258.767 239.691C258.78 239.722 258.783 239.756 258.775 239.788C258.767 239.82 258.748 239.849 258.722 239.87C258.697 239.891 258.664 239.903 258.631 239.904L258.672 239.884Z" fill="#263238"/>
<path d="M258.213 224.4C258.148 224.399 258.085 224.377 258.033 224.337C257.981 224.297 257.943 224.242 257.925 224.18C257.907 224.117 257.909 224.05 257.932 223.989C257.954 223.928 257.995 223.875 258.05 223.839C258.638 223.431 259.315 223.169 260.024 223.075C260.734 222.981 261.456 223.057 262.13 223.298C262.202 223.332 262.259 223.392 262.289 223.465C262.32 223.539 262.321 223.622 262.293 223.696C262.278 223.733 262.255 223.766 262.226 223.794C262.198 223.821 262.164 223.843 262.127 223.857C262.089 223.872 262.05 223.878 262.01 223.877C261.97 223.875 261.931 223.866 261.895 223.849C261.308 223.648 260.681 223.589 260.066 223.676C259.451 223.762 258.865 223.993 258.356 224.349C258.313 224.378 258.264 224.395 258.213 224.4Z" fill="#263238"/>
<path d="M272.819 229.561C272.764 229.561 272.71 229.546 272.664 229.517C272.617 229.488 272.579 229.447 272.554 229.398C272.274 228.844 271.868 228.363 271.368 227.995C270.869 227.626 270.29 227.38 269.678 227.276C269.638 227.274 269.599 227.263 269.563 227.245C269.528 227.227 269.496 227.202 269.47 227.172C269.445 227.141 269.425 227.106 269.414 227.068C269.402 227.03 269.398 226.99 269.402 226.95C269.413 226.872 269.452 226.802 269.513 226.752C269.574 226.703 269.651 226.679 269.729 226.685C270.444 226.79 271.122 227.066 271.707 227.491C272.291 227.915 272.764 228.475 273.085 229.123C273.121 229.193 273.129 229.275 273.106 229.351C273.083 229.428 273.032 229.492 272.962 229.531C272.917 229.551 272.869 229.561 272.819 229.561Z" fill="#263238"/>
<path d="M259.743 228.368H261.783C261.783 228.368 260.365 229.561 259.743 228.368Z" fill="#263238"/>
<path d="M232.162 319.994L231.836 323.615C231.693 323.901 232.03 324.187 232.499 324.187H273.421C273.778 324.187 274.084 324.003 274.105 323.779L274.472 320.158C274.472 319.903 274.186 319.688 273.778 319.688H232.815C232.689 319.678 232.562 319.701 232.448 319.754C232.333 319.808 232.235 319.891 232.162 319.994Z" fill="#7F76FF"/>
<path opacity="0.3" d="M232.162 319.994L231.836 323.615C231.693 323.901 232.03 324.187 232.499 324.187H273.421C273.778 324.187 274.084 324.003 274.105 323.779L274.472 320.158C274.472 319.903 274.186 319.688 273.778 319.688H232.815C232.689 319.678 232.562 319.701 232.448 319.754C232.333 319.808 232.235 319.891 232.162 319.994Z" fill="black"/>
<path d="M237.66 324.574H236.569C236.344 324.574 236.181 324.462 236.191 324.329L236.711 319.617C236.711 319.484 236.915 319.372 237.13 319.372H238.231C238.445 319.372 238.619 319.484 238.598 319.617L238.088 324.329C238.068 324.462 237.884 324.574 237.66 324.574Z" fill="#263238"/>
<path d="M270.3 324.574H269.28C269.056 324.574 268.892 324.462 268.913 324.329L269.423 319.617C269.423 319.484 269.627 319.372 269.851 319.372H270.943C271.167 319.372 271.33 319.484 271.31 319.617L270.8 324.329C270.749 324.462 270.555 324.574 270.3 324.574Z" fill="#263238"/>
<path d="M253.98 324.574H252.878C252.664 324.574 252.491 324.462 252.511 324.329L253.021 319.617C253.021 319.484 253.235 319.372 253.45 319.372H254.551C254.765 319.372 254.929 319.484 254.918 319.617L254.398 324.329C254.408 324.462 254.215 324.574 253.98 324.574Z" fill="#263238"/>
<path d="M345.698 294.413H274.706L264.415 336.335H335.407L345.698 294.413Z" fill="#FAFAFA"/>
<path d="M309.733 328.522L266.312 338.65L238.445 330.837L238.731 328.522H309.733Z" fill="#FAFAFA"/>
<path d="M231.642 276.42C230.785 279.194 229.867 282.081 229.051 284.937C228.235 287.793 227.368 290.639 226.624 293.495C225.879 296.351 225.165 299.197 224.584 301.991C224.318 303.379 224.074 304.766 223.91 306.071C223.783 306.991 223.721 307.918 223.727 308.846C223.964 309.595 224.377 310.277 224.93 310.835C225.756 311.736 226.676 312.546 227.674 313.252C229.931 314.882 232.319 316.322 234.814 317.557C240.119 320.159 245.568 322.457 251.134 324.442L249.9 329.44C243.705 328.423 237.622 326.814 231.734 324.635C228.649 323.509 225.674 322.098 222.85 320.423C221.298 319.477 219.845 318.376 218.515 317.138C216.833 315.613 215.56 313.692 214.812 311.549C214.598 310.885 214.451 310.202 214.373 309.509V308.978V308.591V307.887C214.373 306.969 214.373 306.092 214.373 305.235C214.465 303.521 214.649 301.9 214.883 300.308C215.342 297.106 215.903 294.025 216.668 290.986C217.433 287.946 218.137 284.937 218.984 281.959C219.83 278.98 220.728 276.053 221.768 273.074L231.642 276.42Z" fill="#B55B52"/>
<path d="M225.593 261.967C221.513 263.201 215.393 279.103 215.393 279.103L231.112 290.323C231.112 290.323 238.18 276.726 236.477 271.483C234.651 266.047 230.224 260.559 225.593 261.967Z" fill="#7F76FF"/>
<path opacity="0.5" d="M225.593 261.967C221.513 263.201 215.393 279.103 215.393 279.103L231.112 290.323C231.112 290.323 238.18 276.726 236.477 271.483C234.651 266.047 230.224 260.559 225.593 261.967Z" fill="#FAFAFA"/>
<path d="M249.155 324.758L258.601 322.371L254.102 331.439C254.102 331.439 247.717 331.714 245.606 328.154L249.155 324.758Z" fill="#B55B52"/>
<path d="M266.24 325.819L262.058 333.214L254.102 331.439L258.601 322.371L266.24 325.819Z" fill="#B55B52"/>
<path d="M347.881 294.413H276.889L266.597 336.335H337.589L347.881 294.413Z" fill="#7F76FF"/>
<path d="M337.589 336.335L337.304 338.65H266.312L266.597 336.335H337.589Z" fill="#7F76FF"/>
<path d="M392.302 387.161H391.282V399.391H392.302V387.161Z" fill="#7F76FF"/>
<path opacity="0.3" d="M392.302 387.161H391.282V399.391H392.302V387.161Z" fill="black"/>
<path d="M392.302 404.093H391.282V408.439H392.302V404.093Z" fill="#7F76FF"/>
<path opacity="0.3" d="M392.302 404.093H391.282V408.439H392.302V404.093Z" fill="black"/>
<path d="M149.94 317.536C149.369 317.536 148.798 317.536 148.216 317.587C136.099 318.454 126.296 328.715 125.531 341.343C125.349 344.131 125.615 346.931 126.317 349.636C128.986 360.497 130.275 371.652 130.152 382.837V415.477C130.127 416.585 130.543 417.658 131.307 418.461C132.072 419.264 133.124 419.731 134.232 419.761H233.58V317.536H149.94Z" fill="#7F76FF"/>
<path opacity="0.3" d="M149.94 317.536C149.369 317.536 148.798 317.536 148.216 317.587C136.099 318.454 126.296 328.715 125.531 341.343C125.349 344.131 125.615 346.931 126.317 349.636C128.986 360.497 130.275 371.652 130.152 382.837V415.477C130.127 416.585 130.543 417.658 131.307 418.461C132.072 419.264 133.124 419.731 134.232 419.761H233.58V317.536H149.94Z" fill="black"/>
<path d="M258.06 343.016C258.06 328.358 246.167 316.577 231.877 317.597C219.759 318.464 209.957 328.726 209.192 341.353C209.01 344.142 209.275 346.941 209.977 349.646C212.647 360.508 213.935 371.663 213.812 382.847V415.487C213.788 416.595 214.203 417.668 214.968 418.471C215.732 419.274 216.784 419.741 217.892 419.771H249.257C250.365 419.739 251.415 419.271 252.179 418.468C252.943 417.666 253.359 416.595 253.337 415.487V380.929C253.246 370.453 254.518 360.008 257.122 349.86C257.734 347.63 258.05 345.329 258.06 343.016Z" fill="#7F76FF"/>
</svg>
