<svg width="31" height="31" viewBox="0 0 31 31" fill="none" xmlns="http://www.w3.org/2000/svg">
<path d="M27.1667 0.916672C27.9402 0.916672 28.6821 1.22396 29.2291 1.77094C29.7761 2.31792 30.0834 3.05979 30.0834 3.83334V21.3333C30.0834 22.1069 29.7761 22.8488 29.2291 23.3957C28.6821 23.9427 27.9402 24.25 27.1667 24.25H6.75002L0.916687 30.0833V3.83334C0.916687 2.21459 2.22919 0.916672 3.83335 0.916672H27.1667ZM3.83335 3.83334V23.0396L5.5396 21.3333H27.1667V3.83334H3.83335ZM6.75002 8.20834H24.25V11.125H6.75002V8.20834ZM6.75002 14.0417H19.875V16.9583H6.75002V14.0417Z" fill="white" fill-opacity="0.7"/>
</svg>
