<svg width="35" height="35" viewBox="0 0 35 35" fill="none" xmlns="http://www.w3.org/2000/svg">
<path d="M29.1667 2.91667C29.9402 2.91667 30.6821 3.22396 31.2291 3.77094C31.7761 4.31792 32.0834 5.05979 32.0834 5.83334V23.3333C32.0834 24.1069 31.7761 24.8488 31.2291 25.3957C30.6821 25.9427 29.9402 26.25 29.1667 26.25H8.75002L2.91669 32.0833V5.83334C2.91669 4.21459 4.22919 2.91667 5.83335 2.91667H29.1667ZM5.83335 5.83334V25.0396L7.5396 23.3333H29.1667V5.83334H5.83335ZM8.75002 10.2083H26.25V13.125H8.75002V10.2083ZM8.75002 16.0417H21.875V18.9583H8.75002V16.0417Z" fill="white" fill-opacity="0.7"/>
</svg>
