<svg width="20" height="27" viewBox="0 0 20 27" fill="none" xmlns="http://www.w3.org/2000/svg">
<path d="M17.5714 12.7895C17.5714 17.0526 13.9429 20.0368 10 20.0368C6.05714 20.0368 2.42857 17.0526 2.42857 12.7895H0C0 17.6353 3.88571 21.6426 8.57143 22.3389V27H11.4286V22.3389C16.1143 21.6426 20 17.6353 20 12.7895M8.28572 4.12105C8.28572 3.18316 9.05714 2.41579 10 2.41579C10.9429 2.41579 11.7143 3.18316 11.7143 4.12105L11.7 12.9316C11.7 13.8695 10.9429 14.6368 10 14.6368C9.05714 14.6368 8.28572 13.8695 8.28572 12.9316M10 17.0526C11.1366 17.0526 12.2267 16.6035 13.0305 15.804C13.8342 15.0045 14.2857 13.9201 14.2857 12.7895V4.26316C14.2857 3.1325 13.8342 2.04815 13.0305 1.24865C12.2267 0.449153 11.1366 0 10 0C8.86336 0 7.77327 0.449153 6.96954 1.24865C6.16581 2.04815 5.71429 3.1325 5.71429 4.26316V12.7895C5.71429 13.9201 6.16581 15.0045 6.96954 15.804C7.77327 16.6035 8.86336 17.0526 10 17.0526Z" fill="white" fill-opacity="0.6"/>
</svg>
