<svg width="19" height="19" viewBox="0 0 19 19" fill="none" xmlns="http://www.w3.org/2000/svg">
<path d="M16.2094 2.79062C14.4875 1.06875 12.1244 0 9.5 0C6.98044 0 4.56408 1.00089 2.78249 2.78249C1.00089 4.56408 0 6.98044 0 9.5C0 12.0196 1.00089 14.4359 2.78249 16.2175C4.56408 17.9991 6.98044 19 9.5 19C13.9294 19 17.6225 15.9719 18.6794 11.875H16.2094C15.2356 14.6419 12.5994 16.625 9.5 16.625C7.61033 16.625 5.79806 15.8743 4.46186 14.5381C3.12567 13.2019 2.375 11.3897 2.375 9.5C2.375 7.61033 3.12567 5.79806 4.46186 4.46186C5.79806 3.12567 7.61033 2.375 9.5 2.375C11.4712 2.375 13.2287 3.19438 14.5112 4.48875L10.6875 8.3125H19V0L16.2094 2.79062Z" fill="white" fill-opacity="0.6"/>
</svg>
