<svg width="32" height="33" viewBox="0 0 32 33" fill="none" xmlns="http://www.w3.org/2000/svg">
<path d="M16 9.9C17.7446 9.9 19.4178 10.5954 20.6514 11.8331C21.885 13.0708 22.578 14.7496 22.578 16.5C22.578 18.2504 21.885 19.9292 20.6514 21.1669C19.4178 22.4046 17.7446 23.1 16 23.1C14.2554 23.1 12.5822 22.4046 11.3486 21.1669C10.115 19.9292 9.42195 18.2504 9.42195 16.5C9.42195 14.7496 10.115 13.0708 11.3486 11.8331C12.5822 10.5954 14.2554 9.9 16 9.9ZM16 13.2C15.1277 13.2 14.2911 13.5477 13.6743 14.1665C13.0575 14.7854 12.711 15.6248 12.711 16.5C12.711 17.3752 13.0575 18.2146 13.6743 18.8335C14.2911 19.4523 15.1277 19.8 16 19.8C16.8723 19.8 17.7089 19.4523 18.3257 18.8335C18.9425 18.2146 19.289 17.3752 19.289 16.5C19.289 15.6248 18.9425 14.7854 18.3257 14.1665C17.7089 13.5477 16.8723 13.2 16 13.2ZM12.711 33C12.2998 33 11.9545 32.703 11.8887 32.307L11.2803 27.9345C10.2442 27.522 9.35617 26.961 8.50103 26.301L4.40619 27.9675C4.0444 28.0995 3.60038 27.9675 3.40304 27.6045L0.114017 21.8955C-0.0997699 21.5325 -0.00109903 21.087 0.311358 20.8395L3.78128 18.1005L3.66616 16.5L3.78128 14.85L0.311358 12.1605C-0.00109903 11.913 -0.0997699 11.4675 0.114017 11.1045L3.40304 5.3955C3.60038 5.0325 4.0444 4.884 4.40619 5.0325L8.50103 6.6825C9.35617 6.039 10.2442 5.478 11.2803 5.0655L11.8887 0.693C11.9545 0.297 12.2998 0 12.711 0H19.289C19.7002 0 20.0455 0.297 20.1113 0.693L20.7197 5.0655C21.7558 5.478 22.6438 6.039 23.499 6.6825L27.5938 5.0325C27.9556 4.884 28.3996 5.0325 28.597 5.3955L31.886 11.1045C32.0998 11.4675 32.0011 11.913 31.6886 12.1605L28.2187 14.85L28.3338 16.5L28.2187 18.15L31.6886 20.8395C32.0011 21.087 32.0998 21.5325 31.886 21.8955L28.597 27.6045C28.3996 27.9675 27.9556 28.116 27.5938 27.9675L23.499 26.3175C22.6438 26.961 21.7558 27.522 20.7197 27.9345L20.1113 32.307C20.0455 32.703 19.7002 33 19.289 33H12.711ZM14.7666 3.3L14.1581 7.6065C12.1847 8.019 10.4415 9.075 9.17528 10.5435L5.212 8.8275L3.97862 10.9725L7.44854 13.53C6.79073 15.4605 6.79073 17.556 7.44854 19.47L3.96217 22.044L5.19556 24.189L9.19172 22.473C10.458 23.925 12.1847 24.981 14.1417 25.377L14.7502 29.7H17.2498L17.8583 25.3935C19.8153 24.981 21.542 23.925 22.8083 22.473L26.8044 24.189L28.0378 22.044L24.5515 19.4865C25.2093 17.556 25.2093 15.4605 24.5515 13.53L28.0214 10.9725L26.788 8.8275L22.8247 10.5435C21.5584 9.075 19.8153 8.019 17.8419 7.623L17.2334 3.3H14.7666Z" fill="white" fill-opacity="0.7"/>
</svg>
